# xmcd
#
# Track frame offsets:
#	150
#	17813
#	34495
#	48163
#	61930
#	79936
#	95241
#	109434
#	123964
#	140169
#	158759
#	174051
#	191386
#	207467
#	220042
#	237581
#	252191
#	270678
#
# Disc length: 3798 seconds
#
# Revision: 0
# Processed by: cddbd v1.5.2PL0 Copyright (c) Steve Scherf et al.
# Submitted via: EasyCDDAExtractor 15.3.0.1
#
DISCID=070ed412
DTITLE=Yuri - Viva La Diva
DYEAR=2004
DGENRE=Latin
TTITLE0=Maldita Primavera
TTITLE1=Yo Te Pido Amor
TTITLE2=Entre Dos Aguas
TTITLE3=Que Te Pasa
TTITLE4=Este Amor No Se Toca
TTITLE5=Vivir Sin Ti
TTITLE6=Dame Un Beso
TTITLE7=Hoy Me He Vuelto A Enamorar
TTITLE8=Un Corazon Herido
TTITLE9=Karma Kamaleon
TTITLE10=Tiempos Mejores
TTITLE11=Es Ella Mas Que Yo
TTITLE12=Primer Amor
TTITLE13=Mama Dame
TTITLE14=Cuando Baja La Marea
TTITLE15=Tonto
TTITLE16=Amores Clandestinos
TTITLE17=Amo
EXTD=
EXTT0=
EXTT1=
EXTT2=
EXTT3=
EXTT4=
EXTT5=
EXTT6=
EXTT7=
EXTT8=
EXTT9=
EXTT10=
EXTT11=
EXTT12=
EXTT13=
EXTT14=
EXTT15=
EXTT16=
EXTT17=
PLAYORDER=
